<svg width="24" height="24" viewBox="0 0 24 24" fill="none" xmlns="http://www.w3.org/2000/svg">
<path d="M6.10569 14.0825C5.00678 10.7976 6.61699 7.38734 9.85111 6.14985C12.6253 5.08838 15.9478 6.29722 17.4149 8.9013C17.6542 9.32638 17.8238 9.78759 17.9876 10.2334C18.2128 10.8457 18.4454 11.4792 18.8605 12.0106C18.936 12.1069 18.9667 12.2256 18.9468 12.3443C18.9252 12.4751 18.8464 12.5909 18.7253 12.6702C18.5022 12.8163 18.2559 12.7586 18.0813 12.5216C17.8607 12.2215 17.633 11.8923 17.4659 11.5158C17.3374 11.2268 17.2279 10.9263 17.1217 10.6357C16.9202 10.0832 16.7116 9.51194 16.3674 9.00881C14.9065 6.87424 12.1775 6.1374 9.73043 7.21714C8.67797 7.68166 7.79884 8.5501 7.25519 9.66263C6.70947 10.7793 6.56267 12.0193 6.84092 13.1547C7.25395 14.838 8.02194 16.5031 9.25769 18.3939C9.385 18.5886 9.52268 18.7825 9.65579 18.9697C9.75988 19.1167 9.86769 19.2682 9.97053 19.4201C10.1306 19.6572 10.1016 19.9092 9.89465 20.0785C9.86852 20.0997 9.84157 20.118 9.81461 20.1329C9.63298 20.2321 9.43269 20.1844 9.24235 19.993C9.16688 19.917 9.09058 19.8286 9.01013 19.7232C8.43082 18.9643 7.95269 18.2026 7.54796 17.3935C6.89027 16.3088 6.44988 15.1116 6.10569 14.0829V14.0825Z" fill="url(#paint0_linear_1326_1186)"/>
<path d="M3.86633 12.8611C3.95466 13.6669 4.20347 14.4452 4.44398 15.1983L4.51904 15.4337C4.60861 15.7164 4.54226 15.9355 4.33782 16.0476C4.31419 16.0605 4.28889 16.0721 4.26152 16.0821C4.06289 16.1551 3.79169 16.1522 3.62706 15.7263C2.68448 13.2908 2.63306 11.0371 3.46989 8.83608C4.4162 6.347 6.26651 4.4532 8.67914 3.50464C11.0876 2.55732 13.7238 2.68228 16.1028 3.85708C17.2705 4.43369 18.2757 5.23778 19.091 6.24736L19.0968 6.25525C19.2208 6.45119 19.3535 6.73846 19.0798 6.97093C18.7734 7.23163 18.4864 6.96304 18.3923 6.87462C18.3533 6.83809 18.3205 6.79823 18.2882 6.76004L18.2699 6.73846C17.008 5.23488 15.2498 4.23816 13.3194 3.93263C11.4579 3.63789 9.54541 3.98743 7.93561 4.91772C5.15724 6.52176 3.52173 9.71407 3.86674 12.8615L3.86633 12.8611Z" fill="url(#paint1_linear_1326_1186)"/>
<path d="M10.2015 12.6862C10.0352 12.1827 10.0485 11.7078 10.2405 11.2748C10.5834 10.5022 11.2602 10.0722 12.097 10.0946C12.9223 10.117 13.5965 10.6484 13.8574 11.4815C14.2936 12.8767 14.9849 14.1445 15.9117 15.2496C16.0121 15.3696 16.1435 15.5514 16.1244 15.7477C16.1132 15.8627 16.0519 15.9657 15.9428 16.0537C15.5688 16.3547 15.2665 15.9798 15.1669 15.8565C14.4591 14.9802 13.9606 14.2051 13.5982 13.4172C13.4655 13.1291 13.351 12.8298 13.2403 12.5405C13.1188 12.2233 12.9932 11.895 12.8447 11.5853C12.6059 11.0863 12.1443 10.9165 11.611 11.1307C11.1885 11.3001 10.9455 11.8389 11.0898 12.2831C11.2718 12.8431 11.4597 13.4218 11.7184 13.9689C13.2042 17.1139 15.5343 19.4378 18.6436 20.8766C18.8103 20.9538 18.9318 21.031 19.0264 21.1199C19.179 21.2639 19.2072 21.4661 19.1014 21.6612C19.0579 21.7417 18.999 21.8019 18.9285 21.8405C18.8365 21.8908 18.7245 21.9036 18.6018 21.875C18.4898 21.8488 18.3853 21.8015 18.2845 21.7554L18.2646 21.7463C15.3021 20.4046 12.9757 18.2551 11.3494 15.3563C10.8107 14.438 10.4532 13.4467 10.2023 12.6858L10.2015 12.6862Z" fill="url(#paint2_linear_1326_1186)"/>
<path d="M23.1829 11.3049C22.205 10.9254 21.5341 10.1936 21.1882 9.13002C21.0821 8.80332 20.9419 8.48533 20.8063 8.17731C20.6943 7.92284 20.5782 7.65965 20.4829 7.39355C20.429 7.31302 20.3763 7.2329 20.324 7.15361C20.2071 6.97635 20.0968 6.80864 19.979 6.64218C17.8446 3.62422 14.9045 2.20574 11.2404 2.42576C9.51242 2.52954 7.92294 3.10034 6.51675 4.12196C6.32185 4.26351 5.95901 4.52712 5.67578 4.14645C5.59326 4.03561 5.56091 3.92187 5.57916 3.80895C5.60321 3.66158 5.71351 3.52086 5.91629 3.37971C7.54475 2.24435 9.37102 1.60132 11.3437 1.46807C13.5929 1.31613 15.8952 1.92885 17.826 3.19332C19.8546 4.52214 21.3172 6.43337 22.0549 8.72112C22.3394 9.60368 22.8258 10.1591 23.5411 10.4194C23.7389 10.4912 23.8683 10.5933 23.9256 10.7229C23.9732 10.8308 23.9699 10.9541 23.9152 11.0882C23.8646 11.2123 23.7941 11.2874 23.7161 11.3302C23.5221 11.4365 23.2811 11.3426 23.1829 11.3044V11.3049Z" fill="url(#paint3_linear_1326_1186)"/>
<path d="M2.21836 16.0766C0.959379 12.6663 1.24717 9.40677 3.07302 6.38923C3.4085 5.83504 3.80908 5.3124 4.26357 4.83625C4.53602 4.55148 4.78981 4.51744 5.0183 4.73455C5.29862 5.00106 5.09335 5.27338 4.95443 5.45769C4.91214 5.51373 4.86569 5.56604 4.82091 5.61669C4.79893 5.64159 4.77695 5.66609 4.75539 5.69141C3.13605 7.59392 2.33944 9.80239 2.38755 12.2562C2.42777 14.2924 3.1854 16.1513 3.99818 17.8566C4.63513 19.1933 5.28991 20.3233 5.99985 21.3113C6.20222 21.5932 6.17899 21.8593 5.9364 22.0415C5.91567 22.0573 5.89286 22.0722 5.86923 22.0851C5.71496 22.1694 5.50016 22.1818 5.26047 21.8896C5.16385 21.7721 5.07303 21.648 4.99673 21.5421C4.51031 20.8663 4.10268 20.1253 3.69338 19.3615C3.08587 18.3726 2.63138 17.1962 2.21794 16.0757L2.21836 16.0766Z" fill="url(#paint4_linear_1326_1186)"/>
<path d="M15.6827 10.8554C15.3148 9.7425 14.4988 8.85912 13.4438 8.43195C12.4054 8.01185 11.229 8.07536 10.2151 8.60713C10.1744 8.62831 10.1321 8.65363 10.0894 8.67854C9.91982 8.77941 9.72741 8.89274 9.53914 8.83711C9.42386 8.80307 9.33097 8.71341 9.25592 8.56272C9.05645 8.16378 9.3629 7.99026 9.58683 7.86365C9.64945 7.82836 9.70833 7.79474 9.75893 7.75821L9.76556 7.75322L9.77303 7.74949C10.1972 7.55313 10.66 7.36052 11.1697 7.27874C13.6346 6.88354 15.8278 8.24265 16.6269 10.6608C17.2759 12.6243 18.4921 14.154 20.2413 15.2076C20.9454 15.6315 21.7142 15.9424 22.527 16.1313C22.6929 16.1699 23.1341 16.2724 23.0279 16.749C22.9964 16.8905 22.9326 16.9918 22.8389 17.0499C22.8335 17.0533 22.8281 17.0562 22.8227 17.0595C22.6717 17.1421 22.4826 17.1047 22.3014 17.0587L22.2844 17.0545C22.2616 17.0487 22.2388 17.0429 22.2164 17.0371C18.9404 16.1412 16.7422 14.0619 15.6827 10.8563V10.8554Z" fill="url(#paint5_linear_1326_1186)"/>
<path d="M7.32784 13.0488C7.01725 11.8744 7.20883 10.6917 7.89679 9.53307C8.10454 9.18312 8.36621 9.22089 8.54867 9.31388C8.72698 9.40479 8.90074 9.5945 8.71579 9.98306C8.68054 10.057 8.64114 10.1296 8.60341 10.1998L8.59387 10.2168C8.10828 11.1139 8.01041 12.0782 8.30359 13.082C8.57023 13.9961 8.90488 14.8284 9.3262 15.6263L9.33076 15.6366C9.45724 15.9783 9.65836 16.3025 9.87151 16.6462C9.93952 16.7558 10.0075 16.8658 10.0739 16.9771C11.0882 18.6845 12.421 20.171 14.1481 21.5214C14.5031 21.7987 14.8854 22.0499 15.2558 22.2927C15.3951 22.3841 15.534 22.4754 15.6725 22.5684C15.9769 22.773 16.0457 23.0076 15.8765 23.2654C15.8259 23.3426 15.7675 23.3991 15.7011 23.4356C15.5556 23.5153 15.3727 23.4949 15.155 23.375C15.1156 23.353 15.0774 23.3285 15.0397 23.3036C15.0165 23.2882 14.9928 23.2729 14.9692 23.2587C13.7766 22.5339 12.6449 21.6182 11.6053 20.5368C9.50244 18.3486 8.06349 15.8297 7.32826 13.0492L7.32784 13.0488Z" fill="url(#paint6_linear_1326_1186)"/>
<path d="M17.317 1.7464C17.2672 1.86139 17.2029 1.93155 17.1312 1.97057C16.9579 2.06522 16.7414 1.98178 16.5822 1.92034L16.539 1.90373C16.403 1.85226 16.2666 1.79539 16.1347 1.74059C15.8888 1.63847 15.635 1.53261 15.3787 1.45955C11.2485 0.281842 7.54663 1.137 4.37596 4.00053C3.93971 4.39448 3.56526 4.85942 3.20282 5.30858C3.1315 5.39701 3.06017 5.48543 2.98802 5.57385C2.85988 5.73077 2.69567 5.81337 2.53809 5.80051C2.40207 5.7893 2.28596 5.71042 2.21007 5.57841L2.20924 5.57675L2.20841 5.57509C2.10516 5.375 2.13501 5.17408 2.29964 4.96154C2.35563 4.88889 2.41119 4.81583 2.46635 4.74277C2.63554 4.51985 2.81012 4.28987 3.00129 4.07816C5.10414 1.75429 7.71789 0.405964 10.7708 0.0713738C12.8799 -0.159851 14.9475 0.171419 16.916 1.05522C17.0914 1.13409 17.5015 1.31841 17.317 1.7464Z" fill="url(#paint7_linear_1326_1186)"/>
<path d="M5.42354 16.3674C4.9562 15.2216 4.47309 14.0373 4.35574 12.7562C4.30266 12.1779 4.30929 11.6644 4.37523 11.1862C4.39181 11.0658 4.42167 10.9139 4.50502 10.803C4.59791 10.6793 4.73766 10.6295 4.92012 10.6548C5.35637 10.7155 5.31656 11.1347 5.3037 11.2725C5.29375 11.3788 5.28587 11.4905 5.27923 11.6134C5.23777 12.4237 5.30536 13.114 5.48616 13.7234C6.55438 17.3305 8.51542 20.426 11.3149 22.9239C11.4348 23.031 11.5588 23.1414 11.6554 23.2755C11.7927 23.466 11.7786 23.6844 11.6172 23.86C11.5816 23.8986 11.5426 23.9297 11.5007 23.9525C11.3767 24.0202 11.2291 24.0173 11.0786 23.9401C10.9475 23.8728 10.8327 23.7782 10.7477 23.7039C8.90854 22.0911 7.4501 20.255 6.15753 17.9249C5.98088 17.6447 5.71341 17.0772 5.42354 16.367V16.3674Z" fill="url(#paint8_linear_1326_1186)"/>
<path d="M18.4551 10.0469C17.8078 8.10656 16.6272 6.74703 14.8461 5.89104C14.3269 5.64155 13.7829 5.49626 13.2703 5.36882C12.8544 5.26545 12.8245 5.00683 12.8726 4.8084C12.9199 4.61204 13.063 4.39369 13.4743 4.468C13.5635 4.48419 13.651 4.50619 13.7327 4.52736C16.5563 5.2613 18.4455 7.01271 19.3483 9.73385C19.8588 11.2723 20.8727 12.3898 22.3622 13.0553C22.677 13.196 23.0241 13.3014 23.4553 13.3874C23.6938 13.4347 23.8356 13.5862 23.8543 13.8133C23.87 14.0034 23.7933 14.1574 23.6316 14.2587L23.6303 14.2595C23.6245 14.2633 23.6183 14.2666 23.6125 14.2699C23.4317 14.3687 23.2534 14.3231 23.095 14.2824L23.063 14.2741C20.7462 13.6896 19.1961 12.2674 18.4551 10.0473V10.0469Z" fill="url(#paint9_linear_1326_1186)"/>
<path d="M12.5608 14.5897L12.5596 14.5876C12.5181 14.5033 12.4725 14.4137 12.424 14.3194C12.307 14.0915 12.1747 13.8333 12.0665 13.566C12.0317 13.4801 11.996 13.3945 11.9603 13.3086C11.8086 12.945 11.6514 12.5693 11.5722 12.1695C11.4888 11.7494 11.7223 11.6215 11.8687 11.5821C12.1258 11.5136 12.3385 11.6261 12.4551 11.8963C12.4886 11.9744 12.5235 12.0549 12.5517 12.1384C12.8805 13.1118 13.2985 13.9956 13.8293 14.8404C14.8059 16.3951 16.1184 17.7114 17.7302 18.7521C18.3958 19.1818 19.1339 19.5508 19.9869 19.8804C20.1404 19.9398 20.548 20.0971 20.3917 20.5297C20.3456 20.6567 20.276 20.746 20.1839 20.7962C20.1445 20.8178 20.101 20.8323 20.0529 20.8398C19.9106 20.8618 19.7531 20.8141 19.632 20.7701C19.6096 20.7618 19.5876 20.753 19.5656 20.7443L19.5494 20.7377C16.4895 19.5263 14.2042 17.5159 12.5625 14.5913L12.5612 14.5893L12.5608 14.5897Z" fill="url(#paint10_linear_1326_1186)"/>
<path d="M1.36384 17.593C1.33896 17.5465 1.31408 17.4996 1.28878 17.4531L1.28712 17.4498C0.856683 16.5776 0.548159 15.7395 0.344964 14.8877C-0.305259 12.1674 -0.0353 9.484 1.14655 6.9123C1.23363 6.72301 1.41443 6.32988 1.83824 6.50465C1.96347 6.55613 2.04724 6.63168 2.08705 6.7284C2.15837 6.90068 2.07585 7.09745 2.0037 7.27139L1.99996 7.2801C1.99001 7.30418 1.97881 7.32743 1.9672 7.35068C1.95932 7.36687 1.95145 7.38306 1.94398 7.39924C0.678369 10.2458 0.609532 13.1898 1.73913 16.1497C1.84321 16.4228 1.98006 16.6856 2.11234 16.9396C2.20067 17.1098 2.29232 17.2854 2.37401 17.4639C2.51583 17.774 2.45529 18.0268 2.20813 18.1622C2.20067 18.1663 2.19279 18.1705 2.18491 18.1742C2.04392 18.244 1.77272 18.3025 1.53925 17.9098C1.47705 17.8056 1.41941 17.6972 1.36343 17.5926L1.36384 17.593Z" fill="url(#paint11_linear_1326_1186)"/>
<path d="M9.80385 15.5838L9.80053 15.5759C9.71552 15.3742 9.62429 15.1675 9.53596 14.9674C9.21749 14.2463 8.88781 13.5003 8.72526 12.6937C8.51294 11.6389 8.79575 10.5787 9.50196 9.78453C10.2069 8.99123 11.225 8.58731 12.294 8.67615C13.1176 8.74465 13.8304 9.07841 14.4135 9.66871C14.5221 9.77872 14.666 9.94726 14.6639 10.1432C14.6627 10.259 14.6104 10.3682 14.5084 10.4666C14.1804 10.7842 13.857 10.4662 13.7508 10.3616C13.6281 10.2408 13.5144 10.1411 13.4029 10.0569C12.6353 9.47485 11.5032 9.44828 10.712 9.99417C9.79555 10.6256 9.39621 11.6215 9.6699 12.5941C9.89052 13.3779 10.2048 14.1766 10.6892 15.1845C10.7108 15.2297 10.7381 15.277 10.7667 15.3277C10.8625 15.4958 10.9712 15.6859 10.9152 15.8711C10.8833 15.9761 10.8053 16.0616 10.6772 16.1318C10.6676 16.1368 10.6581 16.1422 10.6481 16.1471C10.2281 16.3576 10.0568 16.0388 9.91913 15.7831C9.88388 15.7175 9.84739 15.6498 9.80799 15.5913L9.80343 15.5842L9.80385 15.5838Z" fill="url(#paint12_linear_1326_1186)"/>
<path d="M14.6313 12.1847C14.533 11.9274 14.3841 11.54 14.8059 11.369C15.2521 11.1893 15.442 11.6501 15.5133 11.8236C16.3833 13.9361 17.872 15.5746 19.9384 16.6942C20.601 17.0533 21.3064 17.2845 21.9695 17.4813C22.273 17.571 22.4066 17.7864 22.3361 18.0716C22.3008 18.2144 22.227 18.3165 22.1225 18.3738C22.0201 18.4299 21.8874 18.4432 21.7319 18.4091C21.6245 18.3859 21.5208 18.3551 21.4337 18.3286C18.6769 17.4846 16.5542 15.7785 15.1231 13.2574C14.9157 12.9041 14.7644 12.533 14.6313 12.1847Z" fill="url(#paint13_linear_1326_1186)"/>
<path d="M22.9425 9.49407C22.7641 9.40398 22.6932 9.18438 22.631 8.99052L22.6223 8.96312C22.619 8.95274 22.6153 8.94237 22.6115 8.93199C22.6053 8.91455 22.5991 8.8967 22.5937 8.87885C21.9012 6.49355 20.5103 4.51672 18.4602 3.00235L18.4357 2.98409C18.3482 2.92016 18.2582 2.85374 18.184 2.76905C18.0322 2.59719 18.0177 2.39918 18.1433 2.2269C18.2872 2.02888 18.4921 1.97201 18.7044 2.07123C18.8251 2.12768 18.9354 2.20324 19.0469 2.28253C20.4813 3.29958 21.654 4.62341 22.5315 6.21749C22.9897 7.05313 23.3227 7.85183 23.55 8.66008L23.5529 8.67088C23.6221 8.91787 23.7241 9.28028 23.4048 9.45504C23.3741 9.47165 23.3393 9.48701 23.3007 9.49988C23.1631 9.54637 23.0428 9.54388 22.9429 9.49365L22.9425 9.49407Z" fill="url(#paint14_linear_1326_1186)"/>
<path d="M5.1432 8.57267C5.90125 7.1052 6.96864 6.00844 8.31014 5.31311C8.36902 5.28114 8.42708 5.24793 8.48513 5.21472C8.61286 5.14166 8.74514 5.06611 8.88282 5.00301C9.65661 4.64683 10.4897 4.42889 11.3589 4.355C11.5422 4.33964 11.6869 4.37576 11.7889 4.46293C11.8785 4.53973 11.9295 4.65182 11.9394 4.79545C11.9511 4.95901 11.903 5.24046 11.4526 5.28571L11.441 5.28696C11.3618 5.29484 11.2797 5.30315 11.2005 5.31518C8.7468 5.69336 6.962 6.99478 5.89585 9.18248C5.88258 9.20988 5.86973 9.23728 5.85646 9.26509C5.81375 9.35601 5.76979 9.44982 5.71215 9.53658C5.66363 9.60965 5.60475 9.66444 5.53881 9.70056C5.42643 9.762 5.29373 9.76864 5.15689 9.7155C4.93628 9.62957 4.83427 9.42284 4.8973 9.18871C4.94913 8.99526 5.03207 8.78812 5.1432 8.57308V8.57267Z" fill="url(#paint15_linear_1326_1186)"/>
<path d="M11.081 17.6547L11.0789 17.6514C10.9081 17.3836 10.9367 17.1396 11.1598 16.9644C11.3742 16.7962 11.618 16.8315 11.8112 17.0594C11.9132 17.1794 12.0094 17.3064 12.1019 17.4293C12.1637 17.5111 12.2255 17.5929 12.2889 17.673C13.647 19.3796 15.3078 20.7628 17.2253 21.7836C17.4331 21.8944 17.8196 22.1003 17.6172 22.5233C17.5641 22.6346 17.4961 22.713 17.4153 22.7574C17.3974 22.767 17.3792 22.7753 17.3601 22.7815C17.1785 22.8429 16.9836 22.7429 16.8111 22.6549L16.7671 22.6325C16.2658 22.3797 15.7478 22.0658 15.1374 21.6445C13.5235 20.5311 12.1583 19.1886 11.0806 17.6543L11.081 17.6547Z" fill="url(#paint16_linear_1326_1186)"/>
<path d="M4.37895 17.1712C4.41918 17.0707 4.50377 16.9935 4.63108 16.9412C4.76129 16.8876 4.88403 16.8843 4.99641 16.9316C5.13782 16.991 5.25725 17.1313 5.34102 17.3372C5.48076 17.6793 5.64332 18.0151 5.82495 18.3356C6.81355 20.0484 7.8258 21.4432 8.91973 22.5989C9.04828 22.7347 9.34976 23.0531 9.02796 23.3922C8.98318 23.4391 8.93673 23.4761 8.88863 23.5022C8.82725 23.5359 8.76298 23.5525 8.69663 23.5521C8.549 23.5508 8.39806 23.4632 8.2355 23.2855C6.53738 21.4254 5.30452 19.6042 4.46562 17.7187C4.38393 17.5352 4.31011 17.3418 4.37854 17.1712H4.37895Z" fill="url(#paint17_linear_1326_1186)"/>
<path d="M23.2199 12.8188C21.9248 12.4945 20.9188 11.7071 20.145 10.411L20.1413 10.4048L19.943 9.89421C19.7564 9.41391 19.545 8.86968 19.3426 8.33417C19.2547 8.10212 19.3219 7.89372 19.5217 7.77666C19.7112 7.6679 19.9144 7.69446 20.0998 7.85387C20.2582 7.99045 20.3337 8.17559 20.4038 8.36946C20.4556 8.5135 20.5045 8.65921 20.5535 8.80451C20.6538 9.10257 20.7575 9.411 20.8865 9.69993C21.4019 10.854 22.2777 11.5987 23.4911 11.9134C23.6785 11.9619 23.9124 12.0226 23.9829 12.2841C24.031 12.4626 23.9758 12.6369 23.8315 12.7623C23.805 12.7855 23.7776 12.8042 23.7503 12.8196C23.5823 12.9113 23.4015 12.8653 23.2518 12.8271L23.2203 12.8192L23.2199 12.8188Z" fill="url(#paint18_linear_1326_1186)"/>
<path d="M16.6537 17.3384L16.6442 17.3272C16.4692 17.0885 16.4729 16.8589 16.655 16.6804C16.9606 16.3811 17.2799 16.6372 17.3848 16.7211C18.5385 17.6464 19.722 18.294 21.0021 18.7017C21.1622 18.7527 21.3566 18.8328 21.4404 19.0018C21.4918 19.1052 21.4931 19.2272 21.4441 19.3646C21.3952 19.5016 21.321 19.5834 21.2368 19.6295C21.0394 19.7374 20.7877 19.649 20.684 19.6124C19.6954 19.2646 18.9191 18.9109 18.2411 18.4991C17.7302 18.189 17.1422 17.8087 16.6541 17.3384H16.6537Z" fill="url(#paint19_linear_1326_1186)"/>
<path d="M19.4893 14.0693C19.2533 13.87 19.2239 13.6114 19.4117 13.3777C19.5805 13.1672 19.8273 13.1552 20.0715 13.3461C21.0079 14.0768 22.0504 14.5695 23.17 14.8111C23.248 14.8281 23.3305 14.8734 23.3968 14.9357C23.498 15.0307 23.547 15.1669 23.5304 15.3097C23.5121 15.4674 23.418 15.6065 23.2724 15.6903L23.255 15.7003L23.2347 15.7016C23.2206 15.7024 23.2032 15.7049 23.1837 15.7078C23.1236 15.7165 23.0411 15.7281 22.9594 15.7132C21.6602 15.4695 20.4924 14.9166 19.4893 14.0701V14.0693Z" fill="url(#paint20_linear_1326_1186)"/>
<path d="M10.5794 21.5615C10.5412 21.5196 10.5047 21.4801 10.4707 21.4444L10.4587 21.4282C10.3123 21.1746 10.3343 20.9533 10.5251 20.7707C10.6864 20.6167 10.8987 20.6075 11.1077 20.747C11.2055 20.8122 11.2872 20.896 11.3669 20.977L11.3776 20.9878C12.1187 21.7437 12.861 22.3851 13.6468 22.9484C13.816 23.0696 13.9835 23.2037 14.0121 23.3905C14.0291 23.5022 13.993 23.618 13.9047 23.7351C13.85 23.8073 13.7932 23.8567 13.7355 23.8883C13.488 24.0236 13.2251 23.8314 13.07 23.7185C12.3065 23.1605 11.5717 22.542 10.8854 21.8807C10.7747 21.774 10.671 21.6611 10.5794 21.5615Z" fill="url(#paint21_linear_1326_1186)"/>
<defs>
<linearGradient id="paint0_linear_1326_1186" x1="11.8221" y1="-1.43697" x2="12.9287" y2="26.6831" gradientUnits="userSpaceOnUse">
<stop stop-color="#003789"/>
<stop offset="1" stop-color="#003789"/>
</linearGradient>
<linearGradient id="paint1_linear_1326_1186" x1="10.6352" y1="-1.39259" x2="11.7418" y2="26.7274" gradientUnits="userSpaceOnUse">
<stop stop-color="#003789"/>
<stop offset="1" stop-color="#003789"/>
</linearGradient>
<linearGradient id="paint2_linear_1326_1186" x1="13.9084" y1="-1.52226" x2="15.0146" y2="26.5973" gradientUnits="userSpaceOnUse">
<stop stop-color="#003789"/>
<stop offset="1" stop-color="#003789"/>
</linearGradient>
<linearGradient id="paint3_linear_1326_1186" x1="14.4169" y1="-1.5337" x2="15.5235" y2="26.5863" gradientUnits="userSpaceOnUse">
<stop stop-color="#003789"/>
<stop offset="1" stop-color="#003789"/>
</linearGradient>
<linearGradient id="paint4_linear_1326_1186" x1="3.08504" y1="-1.09339" x2="4.19128" y2="27.0262" gradientUnits="userSpaceOnUse">
<stop stop-color="#003789"/>
<stop offset="1" stop-color="#003789"/>
</linearGradient>
<linearGradient id="paint5_linear_1326_1186" x1="15.5666" y1="-1.585" x2="16.6732" y2="26.5346" gradientUnits="userSpaceOnUse">
<stop stop-color="#003789"/>
<stop offset="1" stop-color="#003789"/>
</linearGradient>
<linearGradient id="paint6_linear_1326_1186" x1="10.8323" y1="-1.40131" x2="11.9386" y2="26.7183" gradientUnits="userSpaceOnUse">
<stop stop-color="#003789"/>
<stop offset="1" stop-color="#003789"/>
</linearGradient>
<linearGradient id="paint7_linear_1326_1186" x1="9.5682" y1="-1.34711" x2="10.6744" y2="26.7729" gradientUnits="userSpaceOnUse">
<stop stop-color="#003789"/>
<stop offset="1" stop-color="#003789"/>
</linearGradient>
<linearGradient id="paint8_linear_1326_1186" x1="7.28423" y1="-1.25799" x2="8.39088" y2="26.862" gradientUnits="userSpaceOnUse">
<stop stop-color="#003789"/>
<stop offset="1" stop-color="#003789"/>
</linearGradient>
<linearGradient id="paint9_linear_1326_1186" x1="17.921" y1="-1.67834" x2="19.0272" y2="26.4417" gradientUnits="userSpaceOnUse">
<stop stop-color="#003789"/>
<stop offset="1" stop-color="#003789"/>
</linearGradient>
<linearGradient id="paint10_linear_1326_1186" x1="15.294" y1="-1.57153" x2="16.4002" y2="26.5485" gradientUnits="userSpaceOnUse">
<stop stop-color="#003789"/>
<stop offset="1" stop-color="#003789"/>
</linearGradient>
<linearGradient id="paint11_linear_1326_1186" x1="0.643122" y1="-0.994988" x2="1.74936" y2="27.1246" gradientUnits="userSpaceOnUse">
<stop stop-color="#003789"/>
<stop offset="1" stop-color="#003789"/>
</linearGradient>
<linearGradient id="paint12_linear_1326_1186" x1="11.1694" y1="-1.40598" x2="12.2756" y2="26.714" gradientUnits="userSpaceOnUse">
<stop stop-color="#003789"/>
<stop offset="1" stop-color="#003789"/>
</linearGradient>
<linearGradient id="paint13_linear_1326_1186" x1="17.7907" y1="-1.67295" x2="18.897" y2="26.4467" gradientUnits="userSpaceOnUse">
<stop stop-color="#003789"/>
<stop offset="1" stop-color="#003789"/>
</linearGradient>
<linearGradient id="paint14_linear_1326_1186" x1="20.5452" y1="-1.77947" x2="21.6514" y2="26.3401" gradientUnits="userSpaceOnUse">
<stop stop-color="#003789"/>
<stop offset="1" stop-color="#003789"/>
</linearGradient>
<linearGradient id="paint15_linear_1326_1186" x1="8.08165" y1="-1.28613" x2="9.18788" y2="26.8335" gradientUnits="userSpaceOnUse">
<stop stop-color="#003789"/>
<stop offset="1" stop-color="#003789"/>
</linearGradient>
<linearGradient id="paint16_linear_1326_1186" x1="13.4849" y1="-1.5041" x2="14.5911" y2="26.6155" gradientUnits="userSpaceOnUse">
<stop stop-color="#003789"/>
<stop offset="1" stop-color="#003789"/>
</linearGradient>
<linearGradient id="paint17_linear_1326_1186" x1="5.92199" y1="-1.20598" x2="7.02822" y2="26.9141" gradientUnits="userSpaceOnUse">
<stop stop-color="#003789"/>
<stop offset="1" stop-color="#003789"/>
</linearGradient>
<linearGradient id="paint18_linear_1326_1186" x1="21.178" y1="-1.80483" x2="22.2842" y2="26.3148" gradientUnits="userSpaceOnUse">
<stop stop-color="#003789"/>
<stop offset="1" stop-color="#003789"/>
</linearGradient>
<linearGradient id="paint19_linear_1326_1186" x1="18.2216" y1="-1.68926" x2="19.3279" y2="26.4303" gradientUnits="userSpaceOnUse">
<stop stop-color="#003789"/>
<stop offset="1" stop-color="#003789"/>
</linearGradient>
<linearGradient id="paint20_linear_1326_1186" x1="20.7727" y1="-1.79304" x2="21.879" y2="26.327" gradientUnits="userSpaceOnUse">
<stop stop-color="#003789"/>
<stop offset="1" stop-color="#003789"/>
</linearGradient>
<linearGradient id="paint21_linear_1326_1186" x1="11.2595" y1="-1.41441" x2="12.3657" y2="26.7052" gradientUnits="userSpaceOnUse">
<stop stop-color="#003789"/>
<stop offset="1" stop-color="#003789"/>
</linearGradient>
</defs>
</svg>
