<svg width="12" height="14" viewBox="0 0 12 14" fill="none" xmlns="http://www.w3.org/2000/svg">
<path d="M1 11V7C1 5.4087 1.52678 3.88258 2.46447 2.75736C3.40215 1.63214 4.67392 1 6 1C7.32608 1 8.59785 1.63214 9.53553 2.75736C10.4732 3.88258 11 5.4087 11 7V11" stroke="#15456E" stroke-linecap="round" stroke-linejoin="round"/>
<path d="M11 11.6654C11 12.019 10.8829 12.3581 10.6746 12.6082C10.4662 12.8582 10.1836 12.9987 9.88889 12.9987H9.33333C9.03865 12.9987 8.75603 12.8582 8.54766 12.6082C8.33929 12.3581 8.22222 12.019 8.22222 11.6654V9.66536C8.22222 9.31174 8.33929 8.9726 8.54766 8.72256C8.75603 8.47251 9.03865 8.33203 9.33333 8.33203H11V11.6654ZM1 11.6654C1 12.019 1.11706 12.3581 1.32544 12.6082C1.53381 12.8582 1.81643 12.9987 2.11111 12.9987H2.66667C2.96135 12.9987 3.24397 12.8582 3.45234 12.6082C3.66071 12.3581 3.77778 12.019 3.77778 11.6654V9.66536C3.77778 9.31174 3.66071 8.9726 3.45234 8.72256C3.24397 8.47251 2.96135 8.33203 2.66667 8.33203H1V11.6654Z" stroke="#15456E" stroke-linecap="round" stroke-linejoin="round"/>
</svg>
