<svg width="12" height="13" viewBox="0 0 12 13" fill="none" xmlns="http://www.w3.org/2000/svg">
<path d="M8.27273 11.9987V10.7765C8.27273 10.1282 8.08117 9.50642 7.74019 9.04799C7.39922 8.58957 6.93676 8.33203 6.45455 8.33203H2.81818C2.33597 8.33203 1.87351 8.58957 1.53253 9.04799C1.19156 9.50642 1 10.1282 1 10.7765V11.9987" stroke="#15456E" stroke-linecap="round" stroke-linejoin="round"/>
<path d="M4.63849 5.88889C5.64265 5.88889 6.45668 4.79447 6.45668 3.44444C6.45668 2.09441 5.64265 1 4.63849 1C3.63434 1 2.82031 2.09441 2.82031 3.44444C2.82031 4.79447 3.63434 5.88889 4.63849 5.88889Z" stroke="#15456E" stroke-linecap="round" stroke-linejoin="round"/>
<path d="M11.0043 12.0013V10.7791C11.004 10.2375 10.8699 9.71131 10.6231 9.28325C10.3763 8.8552 10.0307 8.54947 9.64062 8.41406" stroke="#15456E" stroke-linecap="round" stroke-linejoin="round"/>
<path d="M7.82031 1.08203C8.21141 1.21666 8.55806 1.52246 8.8056 1.95122C9.05315 2.37998 9.18751 2.90732 9.18751 3.45009C9.18751 3.99286 9.05315 4.52019 8.8056 4.94895C8.55806 5.37771 8.21141 5.68351 7.82031 5.81814" stroke="#15456E" stroke-linecap="round" stroke-linejoin="round"/>
</svg>
